<svg xmlns="http://www.w3.org/2000/svg" width="346.675" height="346.676"><path d="M26.753 210.905c-4.68 19.271-1.375 33.856 8.258 46.243s-1.102 19.543-9.082 23.398-11.012 6.332-11.562 11.836 6.883 26.978 10.461 30.556 11.563 11.285 16.789 19.27c5.231 7.98 12.11 2.754 12.11 2.754 4.953 3.855 9.91 0 9.91 0 8.809 4.129 14.039-1.652 14.039-1.652 4.402-5.23-4.953-10.734-4.953-10.734-5.781-10.184-10.184-1.926-11.836-4.129s-3.027-2.477-11.836-12.66 14.039-6.883 22.02-8.809 23.122-12.109 23.122-12.109c0 12.109 4.129 10.184 10.184 16.516s8.809 10.461 16.789 13.762c7.98 3.305 11.836 2.754 18.993 7.434s22.02 3.855 22.02 3.855c6.605 2.204 12.938 0 12.938 0 15.965 0 9.359-5.504 3.578-12.938s-17.34-1.102-22.57-4.68-18.168-9.082-24.774-12.938c-6.605-3.855 0-10.734 0-17.066s4.953-11.285 4.953-11.285h25.598s19.816-1.375 25.047 9.359 13.211 12.938 13.488 18.719c.278 5.781-4.68 6.332-4.68 6.332-11.012-3.027-11.285 14.59-11.285 14.59 13.488 17.892 39.638-7.434 39.638-7.434 30.277-2.754 28.074-47.344 28.074-47.344 6.055-4.402 15.691-15.965 22.02-26.427 6.332-10.461 24.223-18.441 40.188-10.734 15.965 7.707 18.719-5.23 18.719-5.23 5.504.824 7.156-6.332 7.156-6.332 7.156-7.98-5.504-9.91-5.781-29.727s-16.789-23.399-15.965-29.176c.824-5.781 17.617-24.223 13.488-22.571-3.603 1.44-18.739 8.964-22.53 10.853-.126-.498-.375-1.208-.868-2.317-2.204-4.953-26.427 10.734-26.427 10.734s-38.396 22.709-45.83 24.362c-7.435 1.652-6.605-3.305-15.688-2.477-9.083.824-13.628 1.652-54.501-15.692-40.877-17.34-115.325 10.546-115.325 10.546S-8.608 82.798 40.935 41.924 24.215-33.009 8.111 56.167C-7.992 145.344 31.433 191.64 26.753 210.905z"/></svg>