<?xml version="1.0" standalone="no"?>
<!DOCTYPE svg PUBLIC "-//W3C//DTD SVG 20010904//EN"
 "http://www.w3.org/TR/2001/REC-SVG-20010904/DTD/svg10.dtd">
<svg version="1.0" xmlns="http://www.w3.org/2000/svg"
 width="700.000000pt" height="700.000000pt" viewBox="0 0 700.000000 700.000000"
 preserveAspectRatio="xMidYMid meet">
<metadata>
Created by potrace 1.11, written by Peter Selinger 2001-2013
</metadata>
<g transform="translate(0.000000,700.000000) scale(0.100000,-0.100000)"
fill="#000000" stroke="none">
<path d="M3360 6994 c-369 -24 -632 -70 -914 -161 -557 -179 -1014 -459 -1426
-872 -560 -562 -908 -1292 -996 -2086 -22 -201 -22 -552 1 -750 89 -802 437
-1527 1005 -2095 547 -547 1246 -893 2012 -995 732 -98 1497 46 2140 401 738
407 1318 1083 1602 1867 464 1283 148 2707 -814 3667 -515 515 -1157 849
-1875 976 -186 33 -576 58 -735 48z m530 -159 c664 -82 1255 -337 1767 -762
128 -106 358 -341 460 -470 402 -506 638 -1070 719 -1718 25 -193 25 -577 0
-770 -84 -670 -337 -1259 -763 -1772 -106 -128 -341 -358 -470 -460 -506 -402
-1067 -637 -1718 -719 -193 -25 -577 -25 -770 0 -768 97 -1425 411 -1963 940
-557 547 -890 1224 -988 2011 -25 193 -25 577 0 770 96 765 412 1425 940 1963
155 158 280 266 449 387 504 361 1116 577 1752 619 115 7 461 -4 585 -19z"/>
<path d="M5425 5764 c-998 -105 -1912 -488 -2665 -1114 -160 -133 -349 -317
-412 -400 l-50 -65 -181 -1 c-346 -3 -537 -67 -683 -228 -170 -187 -308 -420
-427 -721 -52 -132 -117 -337 -132 -418 -7 -36 -7 -37 21 -32 16 3 242 36 502
74 l472 68 0 -171 0 -171 303 -303 302 -302 168 0 168 0 -6 -33 c-20 -115
-135 -942 -133 -952 4 -16 187 33 373 100 239 85 542 248 700 374 76 61 168
156 200 206 81 126 117 289 119 548 l2 187 81 65 c146 117 394 394 576 645
556 764 866 1625 940 2608 l4 52 -56 -1 c-31 -1 -114 -7 -186 -15z m-1192
-1216 c204 -95 292 -341 191 -540 -146 -289 -562 -289 -708 0 -110 216 3 482
237 558 70 23 210 14 280 -18z"/>
<path d="M1658 2371 c-72 -28 -112 -56 -172 -121 -133 -145 -216 -429 -216
-744 l0 -113 51 -6 c66 -8 300 9 395 29 266 55 441 161 519 316 19 39 35 78
35 87 0 9 -20 36 -44 60 l-44 44 -32 -37 c-77 -87 -265 -141 -407 -117 -72 13
-73 13 -83 49 -17 63 -12 203 10 273 22 73 69 154 108 186 l27 22 -45 46 c-24
25 -47 45 -50 45 -3 -1 -26 -9 -52 -19z"/>
</g>
</svg>
